<svg xmlns="http://www.w3.org/2000/svg" width="79.433" height="50.067"><g data-name="Calque 2"><g data-name="Layer 1" fill="#1078ad"><path data-name="Path 911" d="M28.781 20.294s-4.868 2.393-6.647-1.373a4.941 4.941 0 011.581-6.127l11.744-8.052c-1.1-.614-2.028-1.914-8.426 1.644s-9.518-.5-9.518-.5l-7.448 18.725 6.023 6.242a4.5 4.5 0 014.952-.915c2.3.8 2.424 3.776 2.424 3.776l3.766-3.318a6.148 6.148 0 013.859-.166c2.081.624 2.59 4.161 2.59 4.161s3.121-1.54 5.2.229 1.29 5.2 1.29 5.2c5.586.967 3.818 6.242 3.818 6.242a2.746 2.746 0 003.214-.374c1.446-1.4.416-3.7.416-3.7l-5.909-6.637c-.479-1.56 1.175-1.56 1.175-1.56l7.656 8.052a3.277 3.277 0 001.373.676c3.807-.177 2.882-4.161 2.882-4.161l-6.916-7.485a1.269 1.269 0 011.4-1.737l8.426 8.9c3.766.957 3.943-2.226 3.943-2.226l-20.68-21.72z"/><rect data-name="Rectangle 1113" width="7.136" height="5.597" rx="2.62" transform="rotate(-45 49.277 .409)"/><rect data-name="Rectangle 1114" width="11.952" height="5.576" rx="2.62" transform="rotate(-42.26 60.199 -7.659)"/><path data-name="Path 912" d="M38.279 36.22a2.788 2.788 0 00-3.943-.187l-6.064 5.472a2.802 2.802 0 003.755 4.161l6.023-5.482a2.788 2.788 0 00.229-3.963z"/><path data-name="Path 913" d="M38.373 42.244l-3.017 3.027a2.81 2.81 0 003.974 3.974l3.027-3.017a2.819 2.819 0 10-3.984-3.984z"/><rect data-name="Rectangle 1115" width="24.331" height="8.488" rx="1.15" transform="matrix(.364 -.931 .931 .364 0 22.66)"/><path data-name="Path 914" d="M53.903 6.989c-3.2-1.924-7.282-4.754-10.642-3.911S31.756 9.07 30.019 10.193a62.863 62.863 0 00-6.148 4.65 3.849 3.849 0 00-.26 3.62 2.871 2.871 0 003.37.77c.895-.385 13.4-6.668 13.4-6.668s1.4-.291 1.987.541 19.557 20.68 19.557 20.68 6.127-4.275 7.979-8.551L59.878 6.722a5.409 5.409 0 01-5.971.27z"/><rect data-name="Rectangle 1116" width="8.54" height="24.456" rx="1.83" transform="rotate(-27.84 38.602 -119.896)"/></g></g></svg>