<svg data-name="Calque 2" xmlns="http://www.w3.org/2000/svg" width="60.341" height="73.227"><g data-name="Layer 1" fill="#1078ad"><path data-name="Path 905" d="M53.211 10.6V7.83h-3.09V3.34h3.87a1.67 1.67 0 000-3.34h-11.72a1.67 1.67 0 000 3.34h4.21v4.49h-3.39v2.93l-6.55.09c-6.65.58-6.65 5.69-6.65 5.69v4.73h5.86v-3.51a1.33 1.33 0 011.26-1.14l7.47-.08a4.285 4.285 0 007.8-.08l8.06-.09V10.5z"/><path data-name="Path 906" d="M11.211 41.36c4.28.43 4.48 6.89 4.48 6.89s5.33-12.38 5.81-13.49 1.64-3.61 3.86-3.71a4.29 4.29 0 013.47 1.71 3.85 3.85 0 013.32-2.38 4.26 4.26 0 013.74 1.89h2.51c3.2-2.83-.41-4.6-.41-4.6l-18.78.27c-2 11-10.76 9.53-10.76 9.53-.91-.71.24-1.3.24-1.3 8.9.19 9.09-9.14 9.09-9.14.88-.43 5.12-3.84 7.66-5.92a2.29 2.29 0 00.17-3.35l-.06-.06a2.31 2.31 0 00-3-.29l-11.15 7.7A13.07 13.07 0 00.011 37.76c-.34 7.07 7.2 11.74 7.2 11.74-.66-4.12-.3-8.57 4-8.14z"/><path data-name="Path 907" d="M42.761 49.81a5.22 5.22 0 00-1.38.18l1.59-3.49a2.463 2.463 0 00-4.48-2.05l-4.72 10.24c-1.13.07-.76-1-.76-1l5.85-12.93a2.33 2.33 0 00-4.23-1.94l-5.79 12.54a.74.74 0 01-1.11-.6l7.11-15.59a2.31 2.31 0 00-1-3 2.3 2.3 0 00-3.18 1.07l-7.11 15.63c-1.15.58-1.08-.75-1.08-.75l5.42-12.19a2.271 2.271 0 10-4.13-1.89l-7.75 16.42a2.19 2.19 0 00-.17 1.3l.66 3.54a.46.46 0 01-.38.33.85.85 0 01-1-.71l-1.72-9.91a2.44 2.44 0 00-4.83.64c.22 2.33.52 5.51.56 6 .08.83.61 11.64.61 11.64 2.34 8.37 8.84 10.47 14.65 9.83s9.61-7 9.61-7l.78-1.69a4 4 0 001.7.37 4.11 4.11 0 004.12-4.12 3.549 3.549 0 000-.46 5.34 5.34 0 002.19.46 5.44 5.44 0 000-10.88zm-3.31 10.86a3 3 0 01-3 3 2.94 2.94 0 01-1.22-.27l2.47-5.4a2.621 2.621 0 01.51.3 5.1 5.1 0 00.86 1 2.91 2.91 0 01.38 1.37zm3.31-1.52a3.91 3.91 0 01-3.91-3.62l1.58-3.46a3.86 3.86 0 012.33-.77 3.93 3.93 0 110 7.85z"/><path data-name="Path 908" d="M36.481 35.98h1.4c1.54 0 2.34 2.3 2.34 2.3h1.41a2.1 2.1 0 001.58-2.15 2.74 2.74 0 00-1.51-2.46h-5.2z"/><path data-name="Path 909" d="M46.581 40.07a1.46 1.46 0 10-1.46 1.46 1.46 1.46 0 001.46-1.46z"/><circle data-name="Ellipse 307" cx="2.98" cy="2.98" r="2.98" transform="translate(47.541 40.15)"/><path data-name="Path 910" d="M52.721 47.89a2.1 2.1 0 102.1 2.1 2.1 2.1 0 00-2.1-2.1z"/></g></svg>