<svg data-name="Calque 2" xmlns="http://www.w3.org/2000/svg" width="61.266" height="74.895"><g data-name="Layer 1" fill="#1078ad"><path data-name="Path 902" d="M61.266 64.366A45.256 45.256 0 010 61.391s6.177-14.267 7.06-16.325a6.788 6.788 0 015.657-3.835c2.353-.068 34.44 0 34.44 0a7.569 7.569 0 016.008 4.311z"/><path data-name="Path 903" d="M15.059 8.86a18.1 18.1 0 1031.17.057l-5.318 10.7a2.783 2.783 0 00-.113 1c0 .52.136 7.4-.079 8.9a10.183 10.183 0 01-2.987 2.342c-2.082 1.131-3.937 2.331-6.064 2.478a9.278 9.278 0 01-6.121-1.482 41.183 41.183 0 01-4.742-3.618s-.238-7.728-.136-9.368z"/><path data-name="Path 904" d="M45.652 8.023a18.1 18.1 0 00-30.073 0l5.985 11.058s.351.6 1.346 0a46.8 46.8 0 004.978-2.783 5.148 5.148 0 015.917.26 15.534 15.534 0 004.741 2.659c.634.113 1.041.192 1.278-.068s5.828-11.126 5.828-11.126z"/></g></svg>