<svg xmlns="http://www.w3.org/2000/svg" width="76" height="72.211"><g data-name="Group 103"><g data-name="Group 93"><path data-name="Path 443" d="M6.006 51.201a.565.565 0 01-.165-1.106l11.375-3.469a.565.565 0 01.33 1.081L6.171 51.176a.542.542 0 01-.165.025z" fill="#1078ad"/></g><g data-name="Group 94"><path data-name="Path 444" d="M16.758 44.558h-.045l-10.956-.855a.565.565 0 01.088-1.127l10.956.854a.565.565 0 01-.044 1.129z" fill="#1078ad"/></g><g data-name="Group 95"><path data-name="Path 445" d="M9.389 58.293a.565.565 0 01-.352-1.008l8.615-6.822a.565.565 0 01.7.886l-8.615 6.822a.561.561 0 01-.348.122z" fill="#1078ad"/></g><g data-name="Group 96"><circle data-name="Ellipse 276" cx=".566" cy=".566" r=".566" fill="#1078ad" transform="translate(4.313 45.355)"/></g><g data-name="Group 97"><circle data-name="Ellipse 277" cx=".566" cy=".566" r=".566" fill="#1078ad" transform="translate(12.564 49.502)"/></g><g data-name="Group 98"><circle data-name="Ellipse 278" cx=".566" cy=".566" r=".566" fill="#1078ad" transform="translate(0 58.207)"/></g><g data-name="Group 99"><circle data-name="Ellipse 279" cx=".566" cy=".566" r=".566" fill="#1078ad" transform="translate(13.696 60.212)"/></g><g data-name="Group 100"><circle data-name="Ellipse 280" cx=".566" cy=".566" r=".566" fill="#1078ad" transform="translate(18.995 52.195)"/></g><g data-name="Group 101"><circle data-name="Ellipse 281" cx=".566" cy=".566" r=".566" fill="#1078ad" transform="translate(14.262 45.355)"/></g><g data-name="Group 102"><circle data-name="Ellipse 282" cx=".566" cy=".566" r=".566" fill="#1078ad" transform="translate(13.13 41.486)"/></g></g><g data-name="Group 104"><path data-name="Path 446" d="M67.398 50.671c1.154-3.889 9.562-14.922 8.511-27.531S67.817.549 51.741.023s-24.8 8.3-26.69 15.657-2.206 6.2-1.156 9.772-5.5 9.144-5.884 13.03c-.2 2 3.765 2.421 3.765 2.421a17.968 17.968 0 01-.48 3.43 6.325 6.325 0 012.138-.217c2.5.126 3.244.586 3.394 1.554.154 1-.754 1.622-1.736 2.132a31.454 31.454 0 01-3.212 1.1s1.067 7.951 2.9 8.639a10.493 10.493 0 006.06.518 7.807 7.807 0 012.775-.049 9.975 9.975 0 013.177 2.074c-.054-.056-.4-.5 0 0 1.484 1.837.919 3.038 1.82 12.128h29.73s-2.101-17.653-.944-21.541z" fill="#1078ad"/></g></svg>