<svg data-name="Fichier 7" xmlns="http://www.w3.org/2000/svg" width="68.582" height="69.491"><defs><clipPath id="a"><circle data-name="Ellipse 305" cx="34.291" cy="34.291" r="34.291" fill="none"/></clipPath></defs><g data-name="Calque 2"><g data-name="Layer 1"><g data-name="Group 145" clip-path="url(#a)"><path data-name="Path 887" d="M55.923 47.436v-.612a2.984 2.984 0 000 .612z" fill="#fbc7b2"/><path data-name="Path 889" d="M55.847 45.886v-.536a3.817 3.817 0 000 .536z" fill="#fbc7b2"/><path data-name="Path 890" d="M55.973 48.366a111.295 111.295 0 01-.176-4.08v-.251C48.265 51.106 39.753 56.2 34.567 56.2s-13.7-5.111-21.221-12.182a83.879 83.879 0 01-1.768 16.04 34.274 34.274 0 0045.852-.5 72.659 72.659 0 01-1.458-11.185z" fill="#1078ad"/><path data-name="Path 891" d="M56.006 48.877v-.511l-.05-.93v-3.4c-7.691 7.071-16.2 12.165-21.389 12.165s-13.7-5.111-21.221-12.182a83.879 83.879 0 01-1.768 16.039 34.35 34.35 0 0011.6 6.7 61.027 61.027 0 0015.692-3.351c8.113-3.249 11.062-8.154 17.136-14.53z" fill="#00395a"/><path data-name="Path 892" d="M13.346 44.035c7.522 7.071 16.044 12.164 21.222 12.164s13.7-5.111 21.221-12.182a62.316 62.316 0 0012.223-15.465A34.3 34.3 0 00.578 27.483a60.833 60.833 0 0012.768 16.552z" fill="#1078ad"/><path data-name="Path 893" d="M40.457 12.5a3.351 3.351 0 01-1.324 2.647c-1.374.93-4.465.586-4.465.586s-3.091.343-4.465-.586a3.351 3.351 0 01-1.324-2.647c-1.676.142-2.513 2.254-1.223 4.415.838 1.382 3.477 1.5 5.278 1.4a34.047 34.047 0 013.46 0c1.8.1 4.465 0 5.286-1.4 1.273-2.161.444-4.281-1.223-4.415z" fill="#fff"/><path data-name="Path 894" d="M46.816 30.487a18.809 18.809 0 01-2.162-1.835c-1.676-1.542-3.661-3.745-6.2-4.021a4.189 4.189 0 00-3.024.578c-.444.335-.612.57-.762.662-.159-.092-.327-.327-.771-.662a4.189 4.189 0 00-3.024-.578c-2.513.276-4.507 2.513-6.2 4.021a18.809 18.809 0 01-2.162 1.835c-.938.62-2.656-.352-4.465-.293.327.779 4.424 1.575 6.6 4.935 3.041 4.708 8.763 4.5 10.054 4.424 1.248.075 6.97.285 10.054-4.424 2.17-3.351 6.275-4.189 6.593-4.935-1.85-.059-3.584.913-4.531.293zm-9.216 2.4a16.379 16.379 0 01-2.941.438 16.27 16.27 0 01-2.941-.436 31.762 31.762 0 01-3.544-1.156c2.312-.293 4.189-2.078 6.485-2.815 2.27.737 4.189 2.513 6.476 2.815a31.072 31.072 0 01-3.527 1.156z" fill="#fff"/><path data-name="Path 895" d="M46.857 29.801a17.988 17.988 0 01-2.16-1.626c-1.676-1.357-3.661-3.3-6.2-3.544a4.591 4.591 0 00-3.024.511c-.469.31-.628.519-.8.595-.159-.075-.318-.285-.838-.595a4.574 4.574 0 00-3.024-.511c-2.513.243-4.507 2.187-6.191 3.544a18.775 18.775 0 01-2.17 1.625c-.938.553-2.656.235-4.465.285a.838.838 0 00.612.511c.369.268.637.151.98.285 1.005.394 2.145.092 3.184.36a12.618 12.618 0 003.653-.134c1.265-.3 2.337-.251 3.6-.536a11.461 11.461 0 014.273-.168 2.605 2.605 0 00.36 0h.36a11.411 11.411 0 014.264.168c1.265.285 2.337.235 3.6.536a12.667 12.667 0 003.661.134c1.039-.268 2.178 0 3.184-.36.343-.134.545-.126.955-.243.327-.251.545-.377.628-.553-1.802-.05-3.478.269-4.442-.284z" fill="#fff"/><path data-name="Path 896" d="M49.774 30.102a5.99 5.99 0 01-2.916-.3 17.988 17.988 0 01-2.162-1.627c-1.676-1.357-3.661-3.3-6.2-3.544a4.591 4.591 0 00-3.024.511c-.469.31-.628.519-.8.595-.159-.075-.318-.285-.838-.595a4.574 4.574 0 00-3.024-.511c-2.513.243-4.507 2.187-6.191 3.544a18.776 18.776 0 01-2.17 1.625 6.662 6.662 0 01-3.192.293c-.352.117-.285.419.084.721a.329.329 0 01.235.067c1.005.394 2.145.092 3.184.36 1.232.084 2.4 1.114 3.552.838s2.337-.243 3.6-.528c1.458-.327 2.89-1.357 4.373-1.148a2.605 2.605 0 00.36 0h.36c1.483-.209 2.706.838 4.189 1.148 1.265.285 2.337.226 3.6.528s2.513-.754 3.762-.838c1.022-.26 2.145 0 3.142-.343.562-.41.436-.737.076-.796z" fill="#fff"/><path data-name="Path 897" d="M33.076 34.031c-1.617-.075-2.949.226-2.966.679s1.273.838 2.89.938 2.949-.235 2.966-.679-1.273-.876-2.89-.938z" fill="#f37e85" opacity=".75"/><path data-name="Path 898" d="M30.747 25.41c-.712 0-1.3.318-1.3.721s.586.712 1.3.712 1.3-.318 1.3-.712-.588-.721-1.3-.721z" fill="#f37e85" opacity=".75"/><path data-name="Path 899" d="M37.324 25.41c-.561 0-1.014.26-1.014.57s.452.57 1.014.57 1.014-.251 1.014-.57-.453-.57-1.014-.57z" fill="#f37e85" opacity=".75"/><path data-name="Path 900" d="M39.284 25.125c-.276 0-.5.126-.5.285s.226.285.5.285.511-.126.511-.285-.224-.285-.511-.285z" fill="#f37e85" opacity=".75"/></g><path data-name="Path 901" d="M15.481 69.378h6.317c.98 0 1.944 0 2.932.084a2.12 2.12 0 002.2-1.039c.645-.972 1.24-2 1.784-3.024a46.322 46.322 0 002.767-6.787 55.135 55.135 0 013.1-7.113c.394-.746.98-2.17.084-2.781a2.513 2.513 0 00-2.882.385 13.278 13.278 0 00-2.2 2.438 9.517 9.517 0 00-1.106 2.773c-.209-3-.343-6.007-.486-9.015a717.97 717.97 0 00-.235-4.507 38.536 38.536 0 00-.293-4.4c-.168-.922-.595-2.1-1.676-2.1-1.273 0-1.726 1.123-1.852 2.212-.327 2.882-.059 5.865-.134 8.788q0 1.986-.151 3.971c-.059 1.114-.3.938-.335-.059 0-1.215-.092-2.421-.142-3.636a9.124 9.124 0 00-.436-3.267 1.533 1.533 0 00-1.86-.989c-.762.268-1.072 1.181-1.232 1.9a16.932 16.932 0 00-.318 3.351 11.3 11.3 0 01-.176 3.527c-.788-1.676.637-8.319-2.513-7.934-1.4.168-1.516 1.877-1.583 2.974-.109 1.567.176 3.351-.327 4.851-.511-1.5.318-5.337-1.676-5.99-2.689-.838-2.17 4.817-2.145 6.074.075 3.351-.168 6.7.511 10.054a24.3 24.3 0 001.542 4.876c.327.771.7 1.525 1.089 2.262.251.469.9 2.161 1.508 2.161" fill="#fff"/></g></g></svg>