<svg data-name="Calque 2" xmlns="http://www.w3.org/2000/svg" width="73.16" height="73.16"><g data-name="Layer 1" fill="#1078ad"><path data-name="Path 871" d="M36.59 0a36.58 36.58 0 1036.57 36.57A36.58 36.58 0 0036.59 0zm0 .911a35.659 35.659 0 0135.069 42.12c-1.253-2.568-3.034-6.637-3.7-8.221a3.831 3.831 0 00-3.272-2.35H49.419c-1.915 0-3.986 2.506-4.338 5.28a12.228 12.228 0 01-2.501 5.363 5.726 5.726 0 014.3 2.858l9.381 20.345a34.981 34.981 0 01-2.609 1.574c-1.957-4.359-8.045-17.86-9.1-19.765a3.551 3.551 0 00-3.106-2.145h-15.53a3.582 3.582 0 00-2.982 2.309l-7.776 16.774a34.101 34.101 0 01-2.423-2l7.382-15.748a6.689 6.689 0 014.67-4.224v-.411a13.2 13.2 0 01-2.381-6.388H8.521a3.448 3.448 0 00-2.723 1.843l-3.593 7.921A35.669 35.669 0 0136.59.911zm30.751 50.413l.921 1.6a25.248 25.248 0 01-.818 1.5zM23.68 69.857a29.82 29.82 0 01-2.071-.9l2.071-4.37zm20.407-5.312l2.92 6.14c-.942.29-1.895.528-2.858.735z"/><path data-name="Path 872" d="M15.313 34.572a7.558 7.558 0 10-7.558-7.558 7.558 7.558 0 007.558 7.558z"/><circle data-name="Ellipse 300" cx="8.521" cy="8.521" r="8.521" transform="rotate(-45 53.94 -8.363)"/><circle data-name="Ellipse 301" cx="8.521" cy="8.521" r="8.521" transform="rotate(-45 49.344 -43.547)"/></g></svg>