<svg xmlns="http://www.w3.org/2000/svg" width="28.608" height="70.655"><path data-name="Path 868" d="M17.333 49.22v-6.223h4.572a1.065 1.065 0 000-2.13h-4.572V38.6h2.659a1.065 1.065 0 100-2.13h-2.659v-2.266h4.572a1.065 1.065 0 000-2.13h-4.572v-2.257h2.659a1.065 1.065 0 000-2.13h-2.659V25.41h4.572a1.065 1.065 0 000-2.13h-4.572V18.2a5.54 5.54 0 10-11.079 0v30.71a11.509 11.509 0 1011.079.313zm-5.861 19.481a9.545 9.545 0 01-3.156-18.563h.107V19.08a3.332 3.332 0 016.663 0v31.263a9.545 9.545 0 01-3.614 18.377zm6.673-9.545a6.389 6.389 0 11-8.724-5.94c.205-.078.41-.147.625-.205v-30.15h3.038v30.042a6.155 6.155 0 011.045.313 6.389 6.389 0 014.054 5.94zm0-54.486a2.384 2.384 0 11.039 0zm0-3.683a1.424 1.424 0 10.039 0zm8.793 12.9h1.654a3.146 3.146 0 01-.606 1.671 3.908 3.908 0 01-1.485 1.27 4.357 4.357 0 01-1.954.479 4.23 4.23 0 01-3.331-1.4 5.6 5.6 0 01-1.241-3.82v-.293a6.116 6.116 0 01.557-2.667 4.181 4.181 0 011.573-1.807 4.475 4.475 0 012.433-.645 4.094 4.094 0 012.854 1.035 3.664 3.664 0 011.211 2.677h-1.611a2.413 2.413 0 00-.752-1.583 2.355 2.355 0 00-1.671-.645 2.442 2.442 0 00-2.071.977 4.494 4.494 0 00-.733 2.775v.332a4.465 4.465 0 00.694 2.667 2.452 2.452 0 002.091.977 2.491 2.491 0 001.632-.567 1.954 1.954 0 00.81-1.437z" fill="#1078ad"/></svg>