<svg data-name="Calque 2" xmlns="http://www.w3.org/2000/svg" width="47.626" height="50.655"><g data-name="Layer 1"><path data-name="Path 867" d="M37.051 22.876a8.263 8.263 0 012.007 3.074c.983 2.519.722 2.981.227 3.3s-2.393-2.964-2.8-6.08a.344.344 0 01.571-.294zm-6.718-3.687a21.835 21.835 0 00-.479 3.955c-.067 1.2.613 3.409 1.209 2.335a8.188 8.188 0 00.411-4.577 8.507 8.507 0 00-.5-1.747.341.341 0 00-.68.034zM20.054 6.962a8.641 8.641 0 00-5.039 0A34.313 34.313 0 004.1 14.6c-4.224 4.543-4.1 6-4.1 7.239s1.209 3.132 3.166 4.921l8.473 7.76-6.676 10.559a3.225 3.225 0 00-.479 1.948 5.475 5.475 0 00.316 1.487 3.359 3.359 0 003.359 2.133h.437a3.183 3.183 0 002.116-1.386l8.4-12.647-1.125.042a17.224 17.224 0 01-6.046-11.673s-.747-1.545-1.377-1.68a14.276 14.276 0 001.092-.957A44.9 44.9 0 0113.52 14.3c1.125-2.754 2.377-4.585 3.745-5.131s2.922.63 3.468 1.629a2.8 2.8 0 010 2.209 18.559 18.559 0 00-2.007 3.964s3.46-1.5 4.384-4.669-1.847-5.002-3.056-5.34zm.346 25.075a2.519 2.519 0 01.72 2.063 2.385 2.385 0 01-1.545 1.831H17.9s-4.493-4.266-5.4-9.951a20.252 20.252 0 011.36-11.354 11.4 11.4 0 012.94-4.549 1.478 1.478 0 011.134-.386 2.864 2.864 0 011.982.84 2.234 2.234 0 01.328.647 2.763 2.763 0 01-.3 2.209c-.84 1.36-2.62 4.669-2.78 7.2v4.081s.9 4.938 3.242 7.373zm24.7 15.746c-2.242.353-3.057.244-3.359.462s-.89.84-4.09 1.209a17.358 17.358 0 01-6.114 0c-1.923-.328-2.99-.143-4.09-1s.143-1.68 1.461-1.99 1.6-.395 1.948-.84a7.675 7.675 0 012.847-1.562s-.252-9.884-.428-11.555-1.4-15.309-2.351-17.635c0 0 .764-.47 1.092-.4s1.495 3.611 2.108 5.5 1.747 5.635 2.461 8.02 2.7 10.128 3.057 11.757.428 3.7.638 4.2 3.057.84 3.838.84a7.81 7.81 0 013.359 1.209c.466.433-.139 1.424-2.377 1.785zm1.68 1.931c0 .47-.915.84-2.049.84s-2.049-.386-2.049-.84.915-.84 2.049-.84 2.015.378 2.015.84zm-18.051-4.307c-1.083 0-1.957-.277-1.957-.63s.84-.621 1.957-.621 1.957.277 1.957.621-.874.63-1.957.63zm1.5-32.256a6.567 6.567 0 114.652-1.923 6.575 6.575 0 01-4.649 1.923z" fill="#1078ad"/></g></svg>