<svg xmlns="http://www.w3.org/2000/svg" width="72" height="72"><defs><clipPath id="a"><circle data-name="Ellipse 293" cx="36" cy="36" r="36" transform="translate(0 -.188)" fill="none"/></clipPath></defs><g data-name="Calque 2"><g data-name="Layer 1"><g data-name="Group 140" clip-path="url(#a)" transform="translate(0 .188)"><path data-name="Path 869" d="M54.204 58.964H47.82a77.324 77.324 0 00-1.01-8.322.538.538 0 00-.815-.383 2.046 2.046 0 00-.505.44c.75 1.549 1.231 21.9 1.231 21.9H26.902V55.532l14.238-4.89a4.263 4.263 0 10-2.911-8.014c-2.217.816-4.7 1.81-5.5 2.169a9.529 9.529 0 00-2.226 1.312l.212.408 8.152-2.927a3.106 3.106 0 013.889 1.687 3.106 3.106 0 01-1.816 4.157l-18.929 6.652c-4.435-.261-3.057-4.687-3.057-4.687s7.622-12.657 8.356-13.182a2.951 2.951 0 011.32-.575h5.217a9.163 9.163 0 007.647 0h4.973c7.843 5.107 7.737 21.322 7.737 21.322zM28.72 28.483a9.016 9.016 0 119.02 9.016 9.016 9.016 0 01-9.016-9.016zm5.32 3.872a.62.62 0 00.815.245 8.172 8.172 0 017.223-.815.75.75 0 00.954-.4.75.75 0 00-.481-1.043 10.41 10.41 0 00-8.311 1.231.587.587 0 00-.2.782zm-4.423-14.673s1.255-3.88-1.9-5.454a1.557 1.557 0 00-1.989 1.394s3.351 2.633 3.889 4.092zM18.75 16.059a1.609 1.609 0 00-.326 2.584h7.337c-1.921-2.518-5.307-3.912-7.011-2.584zm3.391 6.44c-2.323.2-1.72 2.723-.66 2.584s3.383-1.19 4.647-1.19a5.552 5.552 0 00-3.954-1.394zm17.12-6.257a.318.318 0 00.359 0 3.175 3.175 0 014.94 1.043.3.3 0 00.432.1l.188-.122a.318.318 0 00.082-.44c-2.446-3.456-5.111-1.8-6.008-1.076a.3.3 0 00.016.5zm.408 1.345a.318.318 0 00.057.522.31.31 0 00.383-.057c1.443-1.573 2.837-.269 3.351.326a.31.31 0 00.457 0 .318.318 0 00.106-.448 2.78 2.78 0 00-4.345-.342z" fill="#1078ad"/></g></g></g></svg>